<svg width="36" height="37" viewBox="0 0 36 37" fill="none" xmlns="http://www.w3.org/2000/svg">
<path d="M13.8009 7.13229C12.7029 6.60821 11.4737 6.31481 10.1759 6.31481C5.52242 6.31481 1.75 10.0872 1.75 14.7407C1.75 19.3942 5.52242 23.1667 10.1759 23.1667C12.475 23.1667 14.5589 22.2459 16.0792 20.753" stroke="#294569" stroke-width="2"/>
<path d="M14.2119 18.4294C16.1621 21.2892 19.4461 23.1667 23.1686 23.1667C29.1517 23.1667 34.0019 18.3164 34.0019 12.3333C34.0019 6.35025 29.1517 1.5 23.1686 1.5C17.9803 1.5 13.6439 5.14722 12.5833 10.0176" stroke="#294569" stroke-width="2" stroke-linecap="round"/>
<path d="M15.5 36.5C16.1904 36.5 16.75 35.9404 16.75 35.25C16.75 34.5596 16.1904 34 15.5 34C14.8096 34 14.25 34.5596 14.25 35.25C14.25 35.9404 14.8096 36.5 15.5 36.5Z" stroke="#294569"/>
<path d="M25.5 29C26.1904 29 26.75 28.4404 26.75 27.75C26.75 27.0596 26.1904 26.5 25.5 26.5C24.8096 26.5 24.25 27.0596 24.25 27.75C24.25 28.4404 24.8096 29 25.5 29Z" stroke="#294569"/>
<path d="M8.625 28.375C9.31536 28.375 9.875 27.8154 9.875 27.125C9.875 26.4346 9.31536 25.875 8.625 25.875C7.93464 25.875 7.375 26.4346 7.375 27.125C7.375 27.8154 7.93464 28.375 8.625 28.375Z" stroke="#294569"/>
<path d="M21.125 33.375C21.8154 33.375 22.375 32.8154 22.375 32.125C22.375 31.4346 21.8154 30.875 21.125 30.875C20.4346 30.875 19.875 31.4346 19.875 32.125C19.875 32.8154 20.4346 33.375 21.125 33.375Z" stroke="#294569"/>
<path fill-rule="evenodd" clip-rule="evenodd" d="M8 32.75L6.75 34.9151L8 32.75H5.5H8L6.75 30.5849L8 32.75L9.25 30.5849L8 32.75H10.5H8L9.25 34.9151L8 32.75Z" fill="#D8D8D8"/>
<path d="M8 32.75L6.75 34.9151L8 32.75ZM8 32.75H5.5H8ZM8 32.75L6.75 30.5849L8 32.75ZM8 32.75L9.25 30.5849L8 32.75ZM8 32.75H10.5H8ZM8 32.75L9.25 34.9151L8 32.75Z" stroke="#294569" stroke-linecap="round" stroke-linejoin="round"/>
<path fill-rule="evenodd" clip-rule="evenodd" d="M16.75 27.75L15.5 29.9151L16.75 27.75H14.25H16.75L15.5 25.5849L16.75 27.75L18 25.5849L16.75 27.75H19.25H16.75L18 29.9151L16.75 27.75Z" fill="#D8D8D8"/>
<path d="M16.75 27.75L15.5 29.9151L16.75 27.75ZM16.75 27.75H14.25H16.75ZM16.75 27.75L15.5 25.5849L16.75 27.75ZM16.75 27.75L18 25.5849L16.75 27.75ZM16.75 27.75H19.25H16.75ZM16.75 27.75L18 29.9151L16.75 27.75Z" stroke="#294569" stroke-linecap="round" stroke-linejoin="round"/>
<path fill-rule="evenodd" clip-rule="evenodd" d="M25.5 34L24.25 36.1651L25.5 34H23H25.5L24.25 31.8349L25.5 34L26.75 31.8349L25.5 34H28H25.5L26.75 36.1651L25.5 34Z" fill="#D8D8D8"/>
<path d="M25.5 34L24.25 36.1651L25.5 34ZM25.5 34H23H25.5ZM25.5 34L24.25 31.8349L25.5 34ZM25.5 34L26.75 31.8349L25.5 34ZM25.5 34H28H25.5ZM25.5 34L26.75 36.1651L25.5 34Z" stroke="#294569" stroke-linecap="round" stroke-linejoin="round"/>
</svg>
