<svg width="37" height="29" viewBox="0 0 37 29" fill="none" xmlns="http://www.w3.org/2000/svg">
<path d="M15.5517 9.71621C15.0814 7.63636 13.222 6.08333 11 6.08333C8.42265 6.08333 6.33331 8.17267 6.33331 10.75C6.33331 11.4615 6.49254 12.1358 6.77731 12.7392" stroke="#294569" stroke-width="2" stroke-linecap="round"/>
<path d="M15.6801 11.5423C14.6159 11.0344 13.4245 10.75 12.1667 10.75C7.65634 10.75 4 14.4063 4 18.9167C4 23.427 7.65634 27.0833 12.1667 27.0833C14.395 27.0833 16.4148 26.1909 17.8883 24.7439" stroke="#294569" stroke-width="2"/>
<path d="M16.0785 22.4918C17.9687 25.2636 21.1516 27.0833 24.7596 27.0833C30.5586 27.0833 35.2596 22.3823 35.2596 16.5833C35.2596 10.7843 30.5586 6.08333 24.7596 6.08333C19.7309 6.08333 15.5279 9.61833 14.5 14.3389" stroke="#294569" stroke-width="2" stroke-linecap="round"/>
<path d="M4.49548 5.44534L2.68214 3.97692M10.4298 2.58333V0.25V2.58333ZM16.3642 5.44534L18.1775 3.97692L16.3642 5.44534ZM3.03598 11.8513L0.762451 12.3762L3.03598 11.8513Z" stroke="#294569" stroke-width="2" stroke-linecap="round"/>
</svg>
