<svg width="36" height="37" viewBox="0 0 36 37" fill="none" xmlns="http://www.w3.org/2000/svg">
<path d="M13.8009 7.1323C12.7029 6.60821 11.4737 6.31482 10.1759 6.31482C5.52242 6.31482 1.75 10.0872 1.75 14.7407C1.75 19.3943 5.52242 23.1667 10.1759 23.1667C12.475 23.1667 14.5589 22.2459 16.0792 20.753" stroke="#294569" stroke-width="2"/>
<path d="M14.212 18.4294C16.1621 21.2892 19.4461 23.1667 23.1686 23.1667C29.1517 23.1667 34.002 18.3164 34.002 12.3333C34.002 6.35025 29.1517 1.5 23.1686 1.5C17.9803 1.5 13.6439 5.14722 12.5833 10.0176" stroke="#294569" stroke-width="2" stroke-linecap="round"/>
<path d="M24.25 26.5V29" stroke="#294569" stroke-width="2" stroke-linecap="round"/>
<path d="M24.25 32.75V35.25" stroke="#294569" stroke-width="2" stroke-linecap="round"/>
<path d="M18 26.5V29" stroke="#294569" stroke-width="2" stroke-linecap="round"/>
<path d="M18 32.75V35.25" stroke="#294569" stroke-width="2" stroke-linecap="round"/>
<path d="M11.75 26.5V29" stroke="#294569" stroke-width="2" stroke-linecap="round"/>
<path d="M11.75 32.75V35.25" stroke="#294569" stroke-width="2" stroke-linecap="round"/>
</svg>
