<svg width="36" height="36" viewBox="0 0 36 36" fill="none" xmlns="http://www.w3.org/2000/svg">
<path d="M18 28C23.5228 28 28 23.5228 28 18C28 12.4772 23.5228 8 18 8C12.4772 8 8 12.4772 8 18C8 23.5228 12.4772 28 18 28Z" stroke="#294569" stroke-width="2"/>
<path d="M5.62563 5.62563L8.27728 8.27728M18 0.5V4.25V0.5ZM30.3744 5.62563L27.7227 8.27728L30.3744 5.62563ZM35.5 18H31.75H35.5ZM30.3744 30.3744L27.7227 27.7227L30.3744 30.3744ZM18 35.5V31.75V35.5ZM5.62563 30.3744L8.27728 27.7227L5.62563 30.3744ZM0.5 18H4.25H0.5Z" stroke="#294569" stroke-width="2" stroke-linecap="round"/>
</svg>
