<svg width="433" height="384" viewBox="0 0 433 384" fill="none" xmlns="http://www.w3.org/2000/svg">
<g filter="url(#filter0_f_240_4740)">
<path d="M183.09 206.426C183.806 206.444 191.072 231.674 191.072 241.478C191.072 251.282 187.498 259.231 183.09 259.231C178.682 259.231 175.108 251.283 175.108 241.479C175.108 231.675 182.374 206.409 183.09 206.426Z" fill="#42A0F0"/>
<path d="M179.233 244.478C180.399 244.834 181.935 243.192 182.664 240.809C183.392 238.426 183.038 236.205 181.872 235.848C180.705 235.492 179.169 237.134 178.441 239.517C177.712 241.901 178.067 244.121 179.233 244.478Z" fill="white"/>
<path d="M242.516 206.426C243.232 206.444 250.498 231.674 250.498 241.478C250.498 251.282 246.924 259.231 242.516 259.231C238.108 259.231 234.534 251.283 234.534 241.479C234.534 231.675 241.8 206.409 242.516 206.426Z" fill="#42A0F0"/>
<path d="M238.659 244.478C239.825 244.834 241.361 243.192 242.09 240.809C242.818 238.426 242.464 236.205 241.298 235.848C240.131 235.492 238.595 237.134 237.867 239.517C237.138 241.901 237.493 244.121 238.659 244.478Z" fill="white"/>
<path d="M297.403 203.426C298.119 203.444 305.385 228.674 305.385 238.478C305.385 248.282 301.811 256.231 297.403 256.231C292.995 256.231 289.421 248.283 289.421 238.479C289.421 228.675 296.687 203.409 297.403 203.426Z" fill="#42A0F0"/>
<path d="M293.546 241.478C294.712 241.834 296.248 240.192 296.977 237.809C297.705 235.426 297.351 233.205 296.185 232.848C295.018 232.492 293.482 234.134 292.754 236.517C292.025 238.901 292.38 241.121 293.546 241.478Z" fill="white"/>
<path d="M211.055 273.426C211.771 273.444 219.037 298.674 219.037 308.478C219.037 318.282 215.463 326.231 211.055 326.231C206.647 326.231 203.073 318.283 203.073 308.479C203.073 298.675 210.339 273.409 211.055 273.426Z" fill="#42A0F0"/>
<path d="M207.198 311.478C208.364 311.834 209.9 310.192 210.629 307.809C211.358 305.426 211.003 303.205 209.837 302.848C208.67 302.492 207.134 304.134 206.406 306.517C205.677 308.901 206.032 311.121 207.198 311.478Z" fill="white"/>
<path d="M270.481 273.426C271.197 273.444 278.463 298.674 278.463 308.478C278.463 318.282 274.889 326.231 270.481 326.231C266.073 326.231 262.499 318.283 262.499 308.479C262.499 298.675 269.765 273.409 270.481 273.426Z" fill="#42A0F0"/>
<path d="M266.624 311.478C267.79 311.834 269.326 310.192 270.055 307.809C270.784 305.426 270.429 303.205 269.263 302.848C268.096 302.492 266.561 304.134 265.832 306.517C265.103 308.901 265.458 311.121 266.624 311.478Z" fill="white"/>
<path d="M333.403 273.426C334.119 273.444 341.385 298.674 341.385 308.478C341.385 318.282 337.811 326.231 333.403 326.231C328.995 326.231 325.421 318.283 325.421 308.479C325.421 298.675 332.687 273.409 333.403 273.426Z" fill="#42A0F0"/>
<path d="M329.546 311.478C330.712 311.834 332.248 310.192 332.977 307.809C333.705 305.426 333.351 303.205 332.185 302.848C331.018 302.492 329.482 304.134 328.754 306.517C328.025 308.901 328.38 311.121 329.546 311.478Z" fill="white"/>
<path d="M183.09 326.426C183.806 326.444 191.072 351.674 191.072 361.478C191.072 371.282 187.498 379.231 183.09 379.231C178.682 379.231 175.108 371.283 175.108 361.479C175.108 351.675 182.374 326.409 183.09 326.426Z" fill="#42A0F0"/>
<path d="M179.233 364.478C180.399 364.834 181.935 363.192 182.664 360.809C183.392 358.426 183.038 356.205 181.872 355.848C180.705 355.492 179.169 357.134 178.441 359.517C177.712 361.901 178.067 364.121 179.233 364.478Z" fill="white"/>
<path d="M242.516 326.426C243.232 326.444 250.498 351.674 250.498 361.478C250.498 371.282 246.924 379.231 242.516 379.231C238.108 379.231 234.534 371.283 234.534 361.479C234.534 351.675 241.8 326.409 242.516 326.426Z" fill="#42A0F0"/>
<path d="M238.659 364.478C239.825 364.834 241.361 363.192 242.09 360.809C242.818 358.426 242.464 356.205 241.298 355.848C240.131 355.492 238.595 357.134 237.867 359.517C237.138 361.901 237.493 364.121 238.659 364.478Z" fill="white"/>
<path d="M297.403 326.426C298.119 326.444 305.385 351.674 305.385 361.478C305.385 371.282 301.811 379.231 297.403 379.231C292.995 379.231 289.421 371.283 289.421 361.479C289.421 351.675 296.687 326.409 297.403 326.426Z" fill="#42A0F0"/>
<path d="M293.546 364.478C294.712 364.834 296.248 363.192 296.977 360.809C297.705 358.426 297.351 356.205 296.185 355.848C295.018 355.492 293.482 357.134 292.754 359.517C292.025 361.901 292.38 364.121 293.546 364.478Z" fill="white"/>
<path d="M111.25 241.551H157.896L131.081 280.929L162.434 281.523L96.6259 359.411L112.571 300.027H83.3799L111.25 241.551Z" fill="url(#paint0_linear_240_4740)"/>
<path d="M100.544 8.3486C107.097 8.34721 113.633 9.00959 120.053 10.3256C132.443 12.8776 144.207 17.8529 154.668 24.9656C169.161 34.7889 180.74 48.3349 188.189 64.18C195.638 80.0251 198.681 97.5841 196.998 115.012C195.315 132.439 188.969 149.091 178.626 163.219C168.283 177.346 154.326 188.426 138.221 195.295C132.366 197.782 126.279 199.681 120.049 200.964C106.539 203.704 92.6007 203.534 79.1619 200.465C65.7231 197.396 53.0926 191.498 42.112 183.165C31.1314 174.831 22.0528 164.253 15.481 152.136C8.90932 140.018 4.99537 126.639 3.99997 112.891C9.63319 114.211 15.4 114.877 21.186 114.875C36.0883 114.898 50.6547 110.449 63 102.102C75.0248 93.9864 84.4383 82.5582 90.1 69.2016C93.9976 59.9922 95.9965 50.0908 95.977 40.0906C95.9777 34.6598 95.3907 29.245 94.226 23.9406C93.0922 18.8007 91.4162 13.7957 89.226 9.0096C92.9827 8.57053 96.7617 8.34983 100.544 8.3486V8.3486Z" fill="#713FFD"/>
<g filter="url(#filter1_f_240_4740)">
<path d="M166.048 38.4272C144.318 18.8613 115.85 15.0517 102.465 29.9182C89.0787 44.7847 95.8431 72.6977 117.573 92.2636C139.303 111.829 167.77 115.639 181.156 100.772C194.542 85.906 187.778 57.993 166.048 38.4272Z" fill="#A586FC"/>
</g>
<g filter="url(#filter2_d_240_4740)">
<path d="M302.065 268.069H110.633C92.0626 268.054 74.2176 260.857 60.8337 247.983C47.4498 235.11 39.5647 217.558 38.8292 199.002C38.0937 180.446 44.5647 162.325 56.8877 148.432C69.2106 134.54 86.43 125.953 104.941 124.469C107.581 105.829 115.998 88.4852 129.009 74.8785C142.019 61.2718 158.968 52.0865 177.472 48.6149C195.975 45.1433 215.101 47.5601 232.159 55.5253C249.217 63.4904 263.348 76.6031 272.565 93.0185C289.47 87.1667 307.735 86.4828 325.03 91.0542C342.325 95.6256 357.866 105.245 369.672 118.685C381.477 132.126 389.012 148.778 391.314 166.519C393.616 184.259 390.582 202.283 382.599 218.292C377.914 232.756 368.767 245.365 356.471 254.308C344.175 263.251 329.361 268.068 314.157 268.069H302.065Z" fill="url(#paint1_linear_240_4740)"/>
<path d="M314.157 267.068C321.877 267.068 329.468 265.836 336.718 263.404C343.729 261.054 350.31 257.623 356.28 253.208C362.182 248.843 367.355 243.615 371.656 237.669C376.01 231.648 379.372 225.025 381.647 217.984L381.671 217.912L381.705 217.844C384.731 211.796 387.061 205.399 388.631 198.829C390.246 192.069 391.065 185.084 391.065 178.068C391.065 172.029 390.457 165.994 389.257 160.131C388.088 154.417 386.343 148.796 384.072 143.426C381.841 138.152 379.081 133.066 375.866 128.308C372.682 123.595 369.026 119.163 364.998 115.136C360.97 111.108 356.539 107.451 351.826 104.267C347.068 101.053 341.981 98.2923 336.708 96.0618C331.337 93.7902 325.717 92.0455 320.003 90.8763C314.14 89.6765 308.105 89.0681 302.065 89.0681C292.066 89.0681 282.251 90.7138 272.892 93.9594L272.103 94.2332L271.693 93.5048C264.077 79.9629 252.999 68.5903 239.657 60.6165C232.909 56.5839 225.66 53.4676 218.111 51.3543C210.322 49.1741 202.232 48.0686 194.065 48.0686C183.081 48.0686 172.358 50.0456 162.195 53.9446C152.377 57.7113 143.37 63.1523 135.425 70.1166C127.526 77.0408 120.971 85.2108 115.941 94.3994C110.788 103.814 107.421 113.976 105.931 124.604L105.82 125.399L105.019 125.462C96.0607 126.163 87.4419 128.521 79.4017 132.472C71.5893 136.31 64.6132 141.502 58.667 147.903C46.4488 161.055 39.72 178.192 39.72 196.155C39.72 205.729 41.5947 215.016 45.2922 223.757C47.0694 227.959 49.2691 232.012 51.8302 235.803C54.3672 239.558 57.2807 243.089 60.4899 246.298C63.6991 249.507 67.2303 252.421 70.9855 254.958C74.7764 257.519 78.829 259.719 83.0306 261.496C91.7724 265.193 101.059 267.068 110.633 267.068H302.065H314.157ZM314.157 268.068H302.065H110.633C70.9166 268.068 38.72 235.872 38.72 196.155C38.72 158.354 67.8846 127.365 104.941 124.465C111.07 80.726 148.637 47.0686 194.065 47.0686C227.767 47.0686 257.142 65.5918 272.565 93.0146C281.807 89.8093 291.732 88.0681 302.065 88.0681C351.771 88.0681 392.065 128.363 392.065 178.068C392.065 192.524 388.656 206.187 382.599 218.291C373.264 247.177 346.151 268.068 314.157 268.068Z" fill="white" fill-opacity="0.5"/>
</g>
</g>
<defs>
<filter id="filter0_f_240_4740" x="0" y="4.34863" width="396.065" height="378.882" filterUnits="userSpaceOnUse" color-interpolation-filters="sRGB">
<feFlood flood-opacity="0" result="BackgroundImageFix"/>
<feBlend mode="normal" in="SourceGraphic" in2="BackgroundImageFix" result="shape"/>
<feGaussianBlur stdDeviation="2" result="effect1_foregroundBlur_240_4740"/>
</filter>
<filter id="filter1_f_240_4740" x="75.592" y="0.849365" width="132.437" height="128.992" filterUnits="userSpaceOnUse" color-interpolation-filters="sRGB">
<feFlood flood-opacity="0" result="BackgroundImageFix"/>
<feBlend mode="normal" in="SourceGraphic" in2="BackgroundImageFix" result="shape"/>
<feGaussianBlur stdDeviation="10" result="effect1_foregroundBlur_240_4740"/>
</filter>
<filter id="filter2_d_240_4740" x="18.72" y="19.0686" width="413.345" height="281" filterUnits="userSpaceOnUse" color-interpolation-filters="sRGB">
<feFlood flood-opacity="0" result="BackgroundImageFix"/>
<feColorMatrix in="SourceAlpha" type="matrix" values="0 0 0 0 0 0 0 0 0 0 0 0 0 0 0 0 0 0 127 0" result="hardAlpha"/>
<feOffset dx="10" dy="2"/>
<feGaussianBlur stdDeviation="15"/>
<feColorMatrix type="matrix" values="0 0 0 0 0.258824 0 0 0 0 0.627451 0 0 0 0 0.941176 0 0 0 0.596 0"/>
<feBlend mode="normal" in2="BackgroundImageFix" result="effect1_dropShadow_240_4740"/>
<feBlend mode="normal" in="SourceGraphic" in2="effect1_dropShadow_240_4740" result="shape"/>
</filter>
<linearGradient id="paint0_linear_240_4740" x1="115.634" y1="300.481" x2="78.7074" y2="286.943" gradientUnits="userSpaceOnUse">
<stop stop-color="#FFD100"/>
<stop offset="1" stop-color="#FFF0AA"/>
</linearGradient>
<linearGradient id="paint1_linear_240_4740" x1="215.418" y1="47.071" x2="318.061" y2="295.235" gradientUnits="userSpaceOnUse">
<stop stop-color="white" stop-opacity="0.604"/>
<stop offset="1" stop-color="white" stop-opacity="0.2"/>
</linearGradient>
</defs>
</svg>
