<svg width="219" height="342" viewBox="0 0 219 342" fill="none" xmlns="http://www.w3.org/2000/svg">
<g filter="url(#filter0_f_240_6736)">
<path d="M67.2391 69.0979L67.2391 187.582" stroke="#42A0F0" stroke-width="10" stroke-linecap="round"/>
<path d="M67.0021 98.0608L87.4081 76.9968" stroke="#42A0F0" stroke-width="10" stroke-linecap="round"/>
<path d="M67.0021 98.0608L45.9381 76.9968" stroke="#42A0F0" stroke-width="10" stroke-linecap="round"/>
<path d="M67.0021 161.252L87.4081 182.316" stroke="#42A0F0" stroke-width="10" stroke-linecap="round"/>
<path d="M67.0021 161.252L45.9381 182.316" stroke="#42A0F0" stroke-width="10" stroke-linecap="round"/>
<path d="M118.261 99.2092L15.6505 158.451" stroke="#42A0F0" stroke-width="10" stroke-linecap="round"/>
<path d="M93.0594 113.485L121.504 120.625" stroke="#42A0F0" stroke-width="10" stroke-linecap="round"/>
<path d="M93.0595 113.485L100.769 84.7114" stroke="#42A0F0" stroke-width="10" stroke-linecap="round"/>
<path d="M38.3344 145.081L30.2954 173.285" stroke="#42A0F0" stroke-width="10" stroke-linecap="round"/>
<path d="M38.3344 145.081L9.56041 137.371" stroke="#42A0F0" stroke-width="10" stroke-linecap="round"/>
<path d="M117.695 158.451L15.0845 99.2092" stroke="#42A0F0" stroke-width="10" stroke-linecap="round"/>
<path d="M92.7306 143.764L100.77 171.969" stroke="#42A0F0" stroke-width="10" stroke-linecap="round"/>
<path d="M92.7306 143.764L121.505 136.054" stroke="#42A0F0" stroke-width="10" stroke-linecap="round"/>
<path d="M38.0055 112.169L9.56054 119.309" stroke="#42A0F0" stroke-width="10" stroke-linecap="round"/>
<path d="M38.0055 112.169L30.2955 83.395" stroke="#42A0F0" stroke-width="10" stroke-linecap="round"/>
</g>
<g filter="url(#filter1_f_240_6736)">
<g filter="url(#filter2_d_240_6736)">
<path d="M85.4002 199.055L85.4002 63C85.4002 53.7174 89.0877 44.815 95.6514 38.2513C102.215 31.6875 111.118 28 120.4 28C129.683 28 138.585 31.6875 145.149 38.2513C151.713 44.815 155.4 53.7174 155.4 63L155.4 201.97C164.477 209.088 171.309 218.672 175.08 229.573C178.851 240.475 179.4 252.232 176.662 263.437C173.923 274.642 168.014 284.821 159.64 292.755C151.267 300.688 140.784 306.04 129.447 308.17C125.332 309.261 121.054 309.6 116.819 309.17C104.047 308.837 91.7147 304.437 81.6171 296.609C71.5195 288.781 64.184 277.935 60.6784 265.649C57.1729 253.363 57.6803 240.278 62.1268 228.301C66.5733 216.323 74.7267 206.077 85.4002 199.055V199.055Z" fill="url(#paint0_linear_240_6736)"/>
<path d="M59.3756 249.189C59.3756 257.029 60.8884 264.644 63.872 271.821C66.7539 278.754 70.8869 285.005 76.156 290.402C78.7514 293.061 81.6103 295.485 84.6532 297.609C87.7224 299.75 91.0076 301.605 94.4174 303.122C101.499 306.273 109.045 307.971 116.845 308.169L116.883 308.17L116.921 308.174C118.068 308.291 119.238 308.35 120.4 308.35C123.381 308.35 126.338 307.964 129.189 307.203L129.226 307.193L129.264 307.186C136.003 305.929 142.419 303.521 148.333 300.029C154.123 296.61 159.256 292.258 163.589 287.096C167.954 281.896 171.359 276.046 173.71 269.71C176.143 263.153 177.376 256.248 177.376 249.189C177.376 244.564 176.839 239.958 175.78 235.501C174.751 231.169 173.223 226.949 171.238 222.957C169.289 219.036 166.893 215.323 164.117 211.919C161.357 208.536 158.216 205.453 154.783 202.757L154.4 202.457V201.97L154.4 63.0001C154.4 58.4096 153.501 53.957 151.729 49.766C150.016 45.7174 147.565 42.0811 144.442 38.9583C141.319 35.8355 137.683 33.3839 133.634 31.6715C129.443 29.8988 124.991 29 120.4 29C115.81 29 111.357 29.8988 107.166 31.6715C103.117 33.3839 99.4811 35.8355 96.3583 38.9583C93.2354 42.0811 90.7838 45.7174 89.0714 49.766C87.2988 53.957 86.3999 58.4096 86.3999 63.0001L86.3999 199.055V199.593L85.9502 199.89C77.9467 205.164 71.2756 212.384 66.6582 220.769C64.3109 225.031 62.5002 229.575 61.2763 234.275C60.0151 239.117 59.3756 244.135 59.3756 249.189ZM58.3756 249.189C58.3756 228.231 69.1185 209.785 85.3999 199.055L85.3999 63.0001C85.3999 43.6699 101.07 28 120.4 28C139.73 28 155.4 43.6699 155.4 63.0001L155.4 201.97C169.389 212.955 178.376 230.023 178.376 249.189C178.376 278.543 157.296 302.975 129.447 308.169C126.561 308.94 123.529 309.35 120.4 309.35C119.191 309.35 117.997 309.289 116.819 309.169C84.4008 308.344 58.3756 281.806 58.3756 249.189Z" fill="white" fill-opacity="0.5"/>
</g>
<path d="M118.775 205.58C127.575 205.427 136.223 207.886 143.625 212.647C151.028 217.409 156.852 224.258 160.361 232.329C163.871 240.4 164.908 249.331 163.342 257.992C161.776 266.653 157.677 274.655 151.563 280.986C145.449 287.317 137.595 291.693 128.994 293.56C120.393 295.428 111.432 294.703 103.243 291.477C95.0539 288.251 88.0055 282.67 82.9888 275.438C77.9721 268.207 75.2125 259.65 75.0589 250.85C74.8529 239.05 79.343 227.651 87.5415 219.161C95.7399 210.671 106.975 205.786 118.775 205.58V205.58Z" fill="white"/>
</g>
<defs>
<filter id="filter0_f_240_6736" x="0.559204" y="60.0979" width="129.947" height="136.484" filterUnits="userSpaceOnUse" color-interpolation-filters="sRGB">
<feFlood flood-opacity="0" result="BackgroundImageFix"/>
<feBlend mode="normal" in="SourceGraphic" in2="BackgroundImageFix" result="shape"/>
<feGaussianBlur stdDeviation="2" result="effect1_foregroundBlur_240_6736"/>
</filter>
<filter id="filter1_f_240_6736" x="54.3755" y="24" width="128.002" height="289.351" filterUnits="userSpaceOnUse" color-interpolation-filters="sRGB">
<feFlood flood-opacity="0" result="BackgroundImageFix"/>
<feBlend mode="normal" in="SourceGraphic" in2="BackgroundImageFix" result="shape"/>
<feGaussianBlur stdDeviation="2" result="effect1_foregroundBlur_240_6736"/>
</filter>
<filter id="filter2_d_240_6736" x="38.3755" y="0" width="180.002" height="341.351" filterUnits="userSpaceOnUse" color-interpolation-filters="sRGB">
<feFlood flood-opacity="0" result="BackgroundImageFix"/>
<feColorMatrix in="SourceAlpha" type="matrix" values="0 0 0 0 0 0 0 0 0 0 0 0 0 0 0 0 0 0 127 0" result="hardAlpha"/>
<feOffset dx="10" dy="2"/>
<feGaussianBlur stdDeviation="15"/>
<feColorMatrix type="matrix" values="0 0 0 0 0.258824 0 0 0 0 0.627451 0 0 0 0 0.941176 0 0 0 0.596 0"/>
<feBlend mode="normal" in2="BackgroundImageFix" result="effect1_dropShadow_240_6736"/>
<feBlend mode="normal" in="SourceGraphic" in2="effect1_dropShadow_240_6736" result="shape"/>
</filter>
<linearGradient id="paint0_linear_240_6736" x1="163.257" y1="141.947" x2="45.2075" y2="169.913" gradientUnits="userSpaceOnUse">
<stop stop-color="white" stop-opacity="0.596"/>
<stop offset="1" stop-color="#F7F7F7" stop-opacity="0.204"/>
</linearGradient>
</defs>
</svg>
