<svg width="423" height="350" viewBox="0 0 423 350" fill="none" xmlns="http://www.w3.org/2000/svg">
<g filter="url(#filter0_f_240_4809)">
<path d="M232.15 251.255C232.15 251.255 302.276 253.415 330.176 245.313C359.857 236.693 359.819 191.955 330.176 180.927C300.533 169.899 290.402 209.318 290.402 209.318" stroke="#D0D0D0" stroke-width="20" stroke-linecap="round"/>
<path d="M188.85 294.917C188.85 294.917 219.038 289.547 263.391 298.636C307.744 307.725 293.621 333.803 272.601 334.995C251.581 336.187 232.184 322.375 232.184 322.375" stroke="#D0D0D0" stroke-width="20" stroke-linecap="round"/>
<path d="M332.566 298.569H372.566" stroke="#D0D0D0" stroke-width="20" stroke-linecap="round"/>
<path d="M131.865 228.842C129.669 228.871 107.389 263.653 107.389 277.171C107.389 283.662 109.968 289.888 114.558 294.478C119.148 299.068 125.373 301.647 131.865 301.647C138.356 301.647 144.582 299.068 149.172 294.478C153.762 289.888 156.341 283.662 156.341 277.171C156.341 263.653 134.061 228.818 131.865 228.842Z" fill="#42A0F0"/>
<path d="M145.498 269.871C143.052 270.619 142.195 274.907 143.583 279.449C144.972 283.991 148.08 287.067 150.526 286.32C152.972 285.572 153.829 281.283 152.441 276.741C151.052 272.199 147.943 269.123 145.498 269.871Z" fill="white"/>
<path d="M65.9209 277.928C64.1089 277.948 45.7209 306.657 45.7209 317.815C45.7209 323.173 47.8492 328.311 51.6374 332.099C55.4256 335.887 60.5636 338.015 65.9209 338.015C71.2783 338.015 76.4163 335.887 80.2045 332.099C83.9927 328.311 86.1209 323.173 86.1209 317.815C86.1209 306.657 67.7339 277.908 65.9209 277.928Z" fill="#42A0F0"/>
<path d="M77.173 311.792C75.1544 312.409 74.447 315.948 75.5929 319.697C76.7389 323.445 79.3043 325.983 81.3229 325.366C83.3415 324.749 84.0489 321.21 82.9029 317.462C81.757 313.713 79.1916 311.175 77.173 311.792Z" fill="white"/>
<path d="M100.544 8.3486C107.097 8.34721 113.633 9.00959 120.053 10.3256C132.443 12.8776 144.207 17.8529 154.668 24.9656C169.161 34.7889 180.74 48.3349 188.189 64.18C195.638 80.0251 198.681 97.5841 196.998 115.012C195.315 132.439 188.969 149.091 178.626 163.219C168.283 177.346 154.326 188.426 138.221 195.295C132.366 197.782 126.279 199.681 120.049 200.964C106.539 203.704 92.6007 203.534 79.1619 200.465C65.7231 197.396 53.0926 191.498 42.112 183.165C31.1314 174.831 22.0528 164.253 15.481 152.136C8.90932 140.018 4.99537 126.639 3.99997 112.891C9.63319 114.211 15.4 114.877 21.186 114.875C36.0883 114.898 50.6547 110.449 63 102.102C75.0248 93.9864 84.4383 82.5582 90.1 69.2016C93.9976 59.9922 95.9965 50.0908 95.977 40.0906C95.9777 34.6598 95.3907 29.245 94.226 23.9406C93.0922 18.8007 91.4162 13.7957 89.226 9.0096C92.9827 8.57053 96.7617 8.34983 100.544 8.3486V8.3486Z" fill="#713FFD"/>
<g filter="url(#filter1_f_240_4809)">
<path d="M166.048 38.4272C144.318 18.8613 115.85 15.0517 102.465 29.9182C89.0787 44.7847 95.8431 72.6977 117.573 92.2636C139.303 111.829 167.77 115.639 181.156 100.772C194.542 85.906 187.778 57.993 166.048 38.4272Z" fill="#A586FC"/>
</g>
<g filter="url(#filter2_d_240_4809)">
<path d="M292.066 275.069H100.634C82.0636 275.054 64.2185 267.857 50.8346 254.983C37.4507 242.11 29.5657 224.558 28.8302 206.002C28.0946 187.446 34.5657 169.325 46.8886 155.432C59.2116 141.54 76.431 132.953 94.942 131.469C97.5818 112.829 105.999 95.4852 119.01 81.8785C132.02 68.2718 148.969 59.0865 167.473 55.6149C185.976 52.1433 205.102 54.5601 222.16 62.5253C239.218 70.4904 253.349 83.6031 262.566 100.019C279.471 94.1666 297.736 93.4828 315.032 98.0545C332.327 102.626 347.869 112.246 359.674 125.687C371.479 139.128 379.014 155.781 381.315 173.522C383.617 191.263 380.582 209.287 372.598 225.296C367.912 239.759 358.765 252.366 346.47 261.308C334.174 270.251 319.362 275.068 304.158 275.069H292.066Z" fill="url(#paint0_linear_240_4809)"/>
<path d="M304.158 274.068C311.877 274.068 319.467 272.836 326.717 270.405C333.727 268.054 340.308 264.623 346.278 260.209C352.179 255.845 357.352 250.617 361.653 244.671C366.008 238.651 369.37 232.029 371.646 224.988L371.67 224.916L371.704 224.848C374.731 218.8 377.062 212.402 378.632 205.832C380.247 199.071 381.066 192.085 381.066 185.068C381.066 179.029 380.458 172.994 379.258 167.131C378.089 161.417 376.344 155.796 374.073 150.426C371.842 145.152 369.081 140.066 365.867 135.308C362.683 130.595 359.026 126.163 354.999 122.136C350.971 118.108 346.539 114.451 341.826 111.267C337.068 108.053 331.982 105.292 326.709 103.062C321.338 100.79 315.718 99.0455 310.004 97.8763C304.14 96.6765 298.105 96.0681 292.066 96.0681C282.067 96.0681 272.251 97.7137 262.893 100.959L262.104 101.233L261.694 100.505C254.078 86.9628 243 75.5902 229.658 67.6164C222.91 63.5838 215.661 60.4676 208.112 58.3543C200.323 56.1741 192.233 55.0686 184.066 55.0686C173.082 55.0686 162.359 57.0456 152.196 60.9446C142.378 64.7113 133.371 70.1523 125.426 77.1166C117.527 84.0408 110.972 92.2108 105.942 101.399C100.789 110.814 97.4215 120.976 95.9322 131.604L95.8208 132.399L95.02 132.462C86.0617 133.163 77.4429 135.521 69.4027 139.472C61.5903 143.31 54.6141 148.502 48.6679 154.903C36.4498 168.055 29.7209 185.192 29.7209 203.155C29.7209 212.729 31.5957 222.016 35.2932 230.757C37.0704 234.959 39.2701 239.012 41.8312 242.803C44.3681 246.558 47.2817 250.089 50.4909 253.298C53.7 256.507 57.2313 259.421 60.9865 261.958C64.7774 264.519 68.8299 266.719 73.0316 268.496C81.7734 272.193 91.0601 274.068 100.634 274.068H292.066H304.158ZM304.158 275.068H292.066H100.634C60.9175 275.068 28.7209 242.872 28.7209 203.155C28.7209 165.354 57.8856 134.365 94.9419 131.465C101.071 87.726 138.638 54.0686 184.066 54.0686C217.768 54.0686 247.143 72.5917 262.565 100.015C271.808 96.8092 281.733 95.0681 292.066 95.0681C341.772 95.0681 382.066 135.363 382.066 185.068C382.066 199.527 378.657 213.189 372.598 225.295C363.261 254.177 336.148 275.068 304.158 275.068Z" fill="white" fill-opacity="0.5"/>
</g>
</g>
<defs>
<filter id="filter0_f_240_4809" x="0" y="4.34863" width="386.566" height="344.719" filterUnits="userSpaceOnUse" color-interpolation-filters="sRGB">
<feFlood flood-opacity="0" result="BackgroundImageFix"/>
<feBlend mode="normal" in="SourceGraphic" in2="BackgroundImageFix" result="shape"/>
<feGaussianBlur stdDeviation="2" result="effect1_foregroundBlur_240_4809"/>
</filter>
<filter id="filter1_f_240_4809" x="75.592" y="0.849365" width="132.437" height="128.992" filterUnits="userSpaceOnUse" color-interpolation-filters="sRGB">
<feFlood flood-opacity="0" result="BackgroundImageFix"/>
<feBlend mode="normal" in="SourceGraphic" in2="BackgroundImageFix" result="shape"/>
<feGaussianBlur stdDeviation="10" result="effect1_foregroundBlur_240_4809"/>
</filter>
<filter id="filter2_d_240_4809" x="8.72095" y="26.0686" width="413.345" height="281" filterUnits="userSpaceOnUse" color-interpolation-filters="sRGB">
<feFlood flood-opacity="0" result="BackgroundImageFix"/>
<feColorMatrix in="SourceAlpha" type="matrix" values="0 0 0 0 0 0 0 0 0 0 0 0 0 0 0 0 0 0 127 0" result="hardAlpha"/>
<feOffset dx="10" dy="2"/>
<feGaussianBlur stdDeviation="15"/>
<feColorMatrix type="matrix" values="0 0 0 0 0.258824 0 0 0 0 0.627451 0 0 0 0 0.941176 0 0 0 0.596 0"/>
<feBlend mode="normal" in2="BackgroundImageFix" result="effect1_dropShadow_240_4809"/>
<feBlend mode="normal" in="SourceGraphic" in2="effect1_dropShadow_240_4809" result="shape"/>
</filter>
<linearGradient id="paint0_linear_240_4809" x1="205.419" y1="54.071" x2="308.062" y2="302.235" gradientUnits="userSpaceOnUse">
<stop stop-color="white" stop-opacity="0.604"/>
<stop offset="1" stop-color="white" stop-opacity="0.2"/>
</linearGradient>
</defs>
</svg>
